<svg viewBox="0 0 68 64" fill="none" xmlns="http://www.w3.org/2000/svg">
<path fill-rule="evenodd" clip-rule="evenodd" d="M11.4999 26.5001C11.4999 17.1112 19.111 9.50006 28.4999 9.50006C37.8887 9.50006 45.4999 17.1112 45.4999 26.5001C45.4999 35.8889 37.8887 43.5001 28.4999 43.5001C19.111 43.5001 11.4999 35.8889 11.4999 26.5001ZM28.4999 3.50006C15.7973 3.50006 5.49988 13.7975 5.49988 26.5001C5.49988 39.2026 15.7973 49.5001 28.4999 49.5001C33.4066 49.5001 37.9544 47.9636 41.6885 45.3455L55.6715 59.3285C57.2336 60.8906 59.7662 60.8906 61.3283 59.3285C62.8904 57.7664 62.8904 55.2337 61.3283 53.6716L47.3454 39.6886C49.9634 35.9546 51.4999 31.4067 51.4999 26.5001C51.4999 13.7975 41.2024 3.50006 28.4999 3.50006Z" fill="current"/>
</svg>
